<svg width="25" height="20" viewBox="0 0 25 20" fill="none" xmlns="http://www.w3.org/2000/svg">
<path d="M19.2347 8.67117C19.2347 3.43329 14.4221 0 9.61735 0C4.79342 0 0 3.44942 0 8.67117C0 10.6467 0.754152 12.5785 2.12359 14.1108C2.17598 14.1695 2.19605 14.2585 2.17593 14.3431C1.7458 16.1509 0.727052 17.7839 0.309034 18.4022C0.179004 18.5945 0.157617 18.8488 0.253272 19.066C0.346778 19.2784 0.531641 19.4084 0.738185 19.4084C0.742872 19.4084 0.747511 19.4084 0.752198 19.4083C2.79776 19.3497 5.16881 18.6874 6.63443 17.0342C6.68566 16.9764 6.75914 16.9536 6.83111 16.9732C7.7316 17.2183 8.66906 17.3425 9.61735 17.3425C14.4399 17.3423 19.2347 13.8943 19.2347 8.67117ZM7.00011 16.1555C6.6817 16.0688 6.35294 16.1733 6.12096 16.435C4.65528 18.0882 2.26197 18.4641 1.12901 18.5476C1.64654 17.728 2.48799 16.2227 2.88252 14.5643C2.97271 14.1853 2.87784 13.7811 2.63497 13.5092C1.39033 12.1166 0.732423 10.4436 0.732423 8.67117C0.732423 4.35323 4.71817 0.840284 9.61735 0.840284C14.5165 0.840284 18.5023 4.35318 18.5023 8.67117C18.5023 12.9892 14.5165 16.5021 9.61735 16.5021C8.72589 16.5021 7.84537 16.3854 7.00011 16.1555Z" fill="#674D40"/>
<path d="M21.5901 15.6521C23.7253 14.4142 25 12.3043 25 10.0081C25 6.76289 22.443 3.98999 18.92 3.41463C18.7201 3.38202 18.5344 3.54162 18.5059 3.77135C18.4774 4.00108 18.6166 4.21378 18.8168 4.2465C21.9752 4.76231 24.2676 7.18538 24.2676 10.0081C24.2676 11.9806 23.1431 13.8102 21.2597 14.9022C20.8935 15.1146 20.6972 15.584 20.7826 16.0439C20.9611 17.0066 21.3412 17.898 21.6453 18.5022C19.4826 18.0893 18.663 16.8988 18.4038 16.3835C18.2438 16.0654 17.9446 15.8683 17.6217 15.8683C17.6207 15.8683 17.6198 15.8683 17.6188 15.8683L17.592 15.8683C17.1859 15.8683 16.7792 15.836 16.3835 15.7722C16.1837 15.74 15.998 15.9 15.9699 16.1298C15.9418 16.3596 16.0813 16.572 16.2816 16.6043C16.711 16.6735 17.1519 16.7085 17.592 16.7085L17.6218 16.7085H17.6223C17.6836 16.7085 17.7398 16.7448 17.7694 16.8035C18.7612 18.7755 21.0412 19.279 21.9755 19.4039C22.1818 19.4315 22.3784 19.3233 22.4885 19.121C22.5983 18.9192 22.597 18.6693 22.4848 18.469C22.2034 17.9661 21.7013 16.9598 21.499 15.869C21.4828 15.7819 21.5202 15.6926 21.5901 15.6521Z" fill="#674D40"/>
<path d="M3.91887 7.16846C3.21901 7.16846 2.64966 7.82173 2.64966 8.62464C2.64966 9.42755 3.21901 10.0808 3.91887 10.0808C4.61874 10.0808 5.18809 9.42755 5.18809 8.62464C5.18809 7.82173 4.61874 7.16846 3.91887 7.16846ZM3.91887 9.24055C3.62287 9.24055 3.3821 8.96425 3.3821 8.6247C3.3821 8.28515 3.62292 8.00884 3.91887 8.00884C4.21483 8.00884 4.45565 8.28515 4.45565 8.6247C4.45565 8.96425 4.21483 9.24055 3.91887 9.24055Z" fill="#674D40"/>
<path d="M7.53955 7.16846C6.83971 7.16846 6.27039 7.82173 6.27039 8.62464C6.27039 9.42755 6.83971 10.0808 7.53955 10.0808C8.23939 10.0808 8.80872 9.42755 8.80872 8.62464C8.80872 7.82173 8.23939 7.16846 7.53955 7.16846ZM7.53955 9.24055C7.24356 9.24055 7.00279 8.96425 7.00279 8.6247C7.00279 8.28515 7.24361 8.00884 7.53955 8.00884C7.83549 8.00884 8.07631 8.28515 8.07631 8.6247C8.07631 8.96425 7.83554 9.24055 7.53955 9.24055Z" fill="#674D40"/>
<path d="M11.1603 7.16846C10.4605 7.16846 9.89111 7.82173 9.89111 8.62464C9.89111 9.42755 10.4605 10.0808 11.1603 10.0808C11.8602 10.0808 12.4295 9.42755 12.4295 8.62464C12.4295 7.82173 11.8602 7.16846 11.1603 7.16846ZM11.1603 9.24055C10.8643 9.24055 10.6236 8.96425 10.6236 8.6247C10.6236 8.28515 10.8644 8.00884 11.1603 8.00884C11.4563 8.00884 11.6971 8.28515 11.6971 8.6247C11.6971 8.96425 11.4563 9.24055 11.1603 9.24055Z" fill="#674D40"/>
<path d="M14.7811 7.16846C14.0812 7.16846 13.5118 7.82173 13.5118 8.62464C13.5118 9.42755 14.0812 10.0808 14.7811 10.0808C15.4809 10.0808 16.0503 9.42755 16.0503 8.62464C16.0503 7.82173 15.4809 7.16846 14.7811 7.16846ZM14.7811 9.24055C14.4851 9.24055 14.2443 8.96425 14.2443 8.6247C14.2443 8.28515 14.4851 8.00884 14.7811 8.00884C15.077 8.00884 15.3178 8.28515 15.3178 8.6247C15.3178 8.96425 15.077 9.24055 14.7811 9.24055Z" fill="#674D40"/>
</svg>
