<svg width="24" height="25" viewBox="0 0 24 25" fill="none" xmlns="http://www.w3.org/2000/svg">
<path d="M17.0056 6.69687C16.9166 6.69687 16.8312 6.65629 16.7682 6.58404C16.7052 6.51179 16.6698 6.4138 16.6698 6.31162C16.6438 4.83564 16.1144 3.43019 15.1953 2.39692C14.2763 1.36365 13.0407 0.784913 11.7539 0.784913C10.4671 0.784913 9.23161 1.36365 8.31254 2.39692C7.39347 3.43019 6.8641 4.83564 6.83806 6.31162C6.83806 6.4138 6.80268 6.51179 6.7397 6.58404C6.67673 6.65629 6.59131 6.69687 6.50225 6.69687C6.41319 6.69687 6.32777 6.65629 6.2648 6.58404C6.20182 6.51179 6.16644 6.4138 6.16644 6.31162C6.18919 4.62873 6.78787 3.0236 7.83326 1.84274C8.87864 0.661873 10.2869 0 11.7539 0C13.221 0 14.6292 0.661873 15.6746 1.84274C16.72 3.0236 17.3187 4.62873 17.3414 6.31162C17.3414 6.4138 17.3061 6.51179 17.2431 6.58404C17.1801 6.65629 17.0947 6.69687 17.0056 6.69687Z" fill="#674D40"/>
<path d="M17.9859 15.4156C17.8968 15.4162 17.8112 15.3762 17.7479 15.3043C17.6845 15.2325 17.6486 15.1348 17.6481 15.0326C17.6475 14.9304 17.6824 14.8322 17.745 14.7595C17.8076 14.6868 17.8928 14.6456 17.9819 14.645C19.2608 14.6364 20.4856 14.0523 21.3931 13.0185C22.3007 11.9847 22.8184 10.5836 22.835 9.11645C22.8223 7.63491 22.2979 6.21962 21.3769 5.18103C20.4559 4.14243 19.2135 3.56534 17.9221 3.57633C17.4263 3.57539 16.9332 3.65927 16.459 3.82521C16.3743 3.85344 16.2833 3.8423 16.2057 3.7942C16.1281 3.7461 16.0701 3.66489 16.0442 3.56813C16.0184 3.47138 16.0267 3.36683 16.0675 3.2771C16.1083 3.18737 16.1782 3.11965 16.2622 3.08858C16.8002 2.90025 17.3596 2.80494 17.9221 2.80579C19.3915 2.79502 20.8047 3.45336 21.8516 4.63641C22.8986 5.81946 23.4937 7.43062 23.5066 9.11645C23.4894 10.7861 22.9018 12.3814 21.8702 13.5593C20.8386 14.7373 19.4453 15.4038 17.9899 15.4156H17.9859Z" fill="#674D40"/>
<path d="M5.52067 15.4156H5.51664C4.06123 15.4038 2.66797 14.7373 1.63637 13.5593C0.604765 12.3814 0.0172046 10.7861 0 9.11645C0.012864 7.43062 0.60803 5.81946 1.65494 4.63641C2.70186 3.45336 4.11503 2.79502 5.58447 2.80579C6.14694 2.80494 6.70639 2.90025 7.24437 3.08858C7.28712 3.10283 7.32697 3.12668 7.3616 3.15876C7.39624 3.19083 7.42497 3.23049 7.44613 3.27542C7.46729 3.32035 7.48045 3.36966 7.48485 3.42048C7.48925 3.4713 7.4848 3.52262 7.47175 3.57144C7.45871 3.62027 7.43733 3.66564 7.40887 3.7049C7.38041 3.74417 7.34542 3.77655 7.30595 3.80016C7.26649 3.82377 7.22332 3.83815 7.17896 3.84245C7.13461 3.84675 7.08995 3.84089 7.04759 3.82521C6.57338 3.65927 6.08025 3.57539 5.58447 3.57633C4.2931 3.56534 3.05064 4.14243 2.12964 5.18103C1.20864 6.21962 0.684295 7.63491 0.671614 9.11645C0.688217 10.5836 1.20593 11.9847 2.11344 13.0185C3.02096 14.0523 4.24582 14.6364 5.5247 14.645C5.5688 14.6453 5.61241 14.6556 5.65306 14.6752C5.6937 14.6949 5.73057 14.7235 5.76156 14.7595C5.79256 14.7955 5.81707 14.8381 5.8337 14.885C5.85033 14.9318 5.85876 14.982 5.85849 15.0326C5.85823 15.0832 5.84928 15.1332 5.83216 15.1799C5.81504 15.2265 5.79008 15.2688 5.75871 15.3043C5.72734 15.3399 5.69018 15.368 5.64933 15.3871C5.60849 15.4062 5.56477 15.4159 5.52067 15.4156Z" fill="#674D40"/>
<path d="M17.9858 24.9999H5.52062C5.43156 24.9999 5.34615 24.9593 5.28317 24.887C5.22019 24.8148 5.18481 24.7168 5.18481 24.6146V15.0308C5.18481 14.9286 5.22019 14.8306 5.28317 14.7583C5.34615 14.6861 5.43156 14.6455 5.52062 14.6455C5.60969 14.6455 5.6951 14.6861 5.75808 14.7583C5.82105 14.8306 5.85643 14.9286 5.85643 15.0308V24.2294H17.65V15.0308C17.65 14.9286 17.6854 14.8306 17.7484 14.7583C17.8114 14.6861 17.8968 14.6455 17.9858 14.6455C18.0749 14.6455 18.1603 14.6861 18.2233 14.7583C18.2863 14.8306 18.3216 14.9286 18.3216 15.0308V24.6146C18.3216 24.7168 18.2863 24.8148 18.2233 24.887C18.1603 24.9593 18.0749 24.9999 17.9858 24.9999Z" fill="#674D40"/>
<path d="M20.3231 21.2669H7.8579C7.76884 21.2669 7.68343 21.2263 7.62045 21.154C7.55747 21.0817 7.52209 20.9836 7.52209 20.8814C7.52209 20.7791 7.55747 20.6811 7.62045 20.6088C7.68343 20.5365 7.76884 20.4958 7.8579 20.4958H20.3231C20.4122 20.4958 20.4976 20.5365 20.5606 20.6088C20.6235 20.6811 20.6589 20.7791 20.6589 20.8814C20.6589 20.9836 20.6235 21.0817 20.5606 21.154C20.4976 21.2263 20.4122 21.2669 20.3231 21.2669Z" fill="#674D40"/>
</svg>
