<svg width="8" height="16" viewBox="0 0 8 16" fill="none" xmlns="http://www.w3.org/2000/svg">
<path d="M7.25611 0.00332907L5.44759 0C3.41579 0 2.10275 1.54552 2.10275 3.93762V5.75313H0.284371C0.127242 5.75313 0 5.89927 0 6.07954V8.71001C0 8.89028 0.127387 9.03625 0.284371 9.03625H2.10275V15.6738C2.10275 15.854 2.22999 16 2.38712 16H4.75959C4.91672 16 5.04396 15.8539 5.04396 15.6738V9.03625H7.17007C7.3272 9.03625 7.45444 8.89028 7.45444 8.71001L7.45531 6.07954C7.45531 5.99299 7.42528 5.91009 7.37203 5.84884C7.31878 5.78758 7.24624 5.75313 7.17079 5.75313H5.04396V4.2141C5.04396 3.47438 5.19761 3.09886 6.03752 3.09886L7.25582 3.09836C7.4128 3.09836 7.54004 2.95222 7.54004 2.77211V0.329578C7.54004 0.149642 7.41295 0.00366197 7.25611 0.00332907Z" fill="#2E2520"/>
</svg>
