<svg width="24" height="25" viewBox="0 0 24 25" fill="none" xmlns="http://www.w3.org/2000/svg">
<path d="M8.28706 0C5.71419 0 3.61865 2.40413 3.61865 5.3559C3.61865 8.30767 5.71419 10.7118 8.28706 10.7118C10.8599 10.7118 12.9555 8.30767 12.9555 5.3559C12.9555 2.40413 10.8599 0 8.28706 0ZM8.28706 9.81367C6.13902 9.81367 4.39672 7.80932 4.39672 5.35042C4.39672 2.89153 6.14379 0.887173 8.28706 0.887173C10.4351 0.887173 12.1774 2.89153 12.1774 5.35042C12.1774 7.80932 10.4303 9.81367 8.28706 9.81367Z" fill="#674D40"/>
<path d="M17.8483 2.22314C15.9151 2.22314 14.3446 4.02491 14.3446 6.24289C14.3446 8.46086 15.9151 10.2626 17.8483 10.2626C19.7816 10.2626 21.352 8.46086 21.352 6.24289C21.352 4.02491 19.7816 2.22314 17.8483 2.22314ZM17.8483 9.37544C16.3447 9.37544 15.1227 7.97346 15.1227 6.24836C15.1227 4.52327 16.3447 3.12129 17.8483 3.12129C19.352 3.12129 20.574 4.52327 20.574 6.24836C20.574 7.97346 19.352 9.37544 17.8483 9.37544Z" fill="#674D40"/>
<path d="M24.1158 16.1555C23.7626 13.713 22.4403 11.6539 20.1873 10.575C20.1873 10.575 19.1896 11.4403 17.8483 11.4129C16.3828 11.38 15.5093 10.575 15.5093 10.575C15.5093 10.575 14.4209 11.0405 13.5426 12.0098C12.7311 11.1829 11.3612 10.5093 11.3612 10.5093C11.3612 10.5093 10.1058 11.6046 8.2823 11.5881C6.36816 11.5717 5.21298 10.5093 5.21298 10.5093C5.21298 10.5093 1.07441 12.1413 0.200872 17.6779C0.200872 17.6779 -0.734722 20.6133 1.43242 24.9999H15.1465C15.1465 24.9999 16.1203 23.0558 16.2921 21.8729H23.1134C24.7889 18.9594 24.1158 16.1555 24.1158 16.1555ZM14.6644 24.1073H1.91454C0.248606 20.4764 0.969395 17.8258 0.969395 17.8258C1.37514 15.0492 2.93128 12.7053 5.1557 11.5169C7.06508 12.8039 9.51385 12.8039 11.4232 11.5169C13.6476 12.7053 15.2038 15.0492 15.6095 17.8258C15.6048 17.8258 16.2969 21.0897 14.6644 24.1073ZM22.6599 20.9802H16.4497C16.6883 19.403 16.3733 17.6779 16.3733 17.6779C16.0917 15.7283 15.2897 13.9704 14.1154 12.6122C14.5164 12.196 14.9603 11.851 15.4472 11.5827C16.9127 12.5465 18.7791 12.5465 20.2445 11.5827C21.8914 12.4863 23.0466 14.2332 23.3473 16.3033C23.3473 16.3033 23.9153 18.5158 22.6599 20.9802Z" fill="#674D40"/>
</svg>
