<svg aria-hidden="true" style="position:absolutr; width:0 ; height: 0; overflow: hidden;" xmlns="http://www.w3.org/2000/svg">
<defs>

<symbol id="facebook" width="8" height="16" viewBox="0 0 8 16">
<path d="M7.25611 0.00332907L5.44759 0C3.41579 0 2.10275 1.54552 2.10275 3.93762V5.75313H0.284371C0.127242 5.75313 0 5.89927 0 6.07954V8.71001C0 8.89028 0.127387 9.03625 0.284371 9.03625H2.10275V15.6738C2.10275 15.854 2.22999 16 2.38712 16H4.75959C4.91672 16 5.04396 15.8539 5.04396 15.6738V9.03625H7.17007C7.3272 9.03625 7.45444 8.89028 7.45444 8.71001L7.45531 6.07954C7.45531 5.99299 7.42528 5.91009 7.37203 5.84884C7.31878 5.78758 7.24624 5.75313 7.17079 5.75313H5.04396V4.2141C5.04396 3.47438 5.19761 3.09886 6.03752 3.09886L7.25582 3.09836C7.4128 3.09836 7.54004 2.95222 7.54004 2.77211V0.329578C7.54004 0.149642 7.41295 0.00366197 7.25611 0.00332907Z" fill="#2E2520"/>
</symbol>

<symbol id="instagram" width="16" height="16" viewBox="0 0 16 16" >
<path d="M8.15778 16C8.1048 16 8.05182 16 7.99847 15.9998C6.74428 16.0028 5.58542 15.9709 4.45842 15.9023C3.42518 15.8395 2.48203 15.4824 1.73078 14.8699C1.0059 14.2788 0.510884 13.4796 0.259531 12.4947C0.0407731 11.6373 0.0291759 10.7956 0.0180671 9.98155C0.0100101 9.39744 0.00170905 8.7053 0 8.00144C0.00170905 7.29465 0.0100101 6.60251 0.0180671 6.01841C0.0291759 5.20444 0.0407731 4.36276 0.259531 3.50521C0.510884 2.52035 1.0059 1.72115 1.73078 1.13009C2.48203 0.517535 3.42518 0.160478 4.45854 0.0976116C5.58554 0.02913 6.74464 -0.00285251 8.00153 0.000199254C9.25609 -0.0024863 10.4146 0.02913 11.5416 0.0976116C12.5748 0.160478 13.518 0.517535 14.2692 1.13009C14.9942 1.72115 15.4891 2.52035 15.7405 3.50521C15.9592 4.36264 15.9708 5.20444 15.9819 6.01841C15.99 6.60251 15.9984 7.29465 16 7.99851V8.00144C15.9984 8.7053 15.99 9.39744 15.9819 9.98155C15.9708 10.7955 15.9593 11.6372 15.7405 12.4947C15.4891 13.4796 14.9942 14.2788 14.2692 14.8699C13.518 15.4824 12.5748 15.8395 11.5416 15.9023C10.4623 15.968 9.35363 16 8.15778 16V16ZM7.99847 14.7498C9.23229 14.7527 10.3651 14.7216 11.4656 14.6547C12.2469 14.6072 12.9243 14.3536 13.4793 13.9011C13.9922 13.4828 14.3455 12.9056 14.5292 12.1857C14.7114 11.4719 14.7219 10.7056 14.732 9.96446C14.7399 9.38426 14.7482 8.697 14.75 7.99998C14.7482 7.30283 14.7399 6.6157 14.732 6.03549C14.7219 5.2944 14.7114 4.52804 14.5292 3.81418C14.3455 3.0942 13.9922 2.51705 13.4793 2.09872C12.9243 1.64632 12.2469 1.39278 11.4656 1.3453C10.3651 1.27828 9.23229 1.2474 8.0014 1.25008C6.76784 1.24715 5.63486 1.27828 4.53435 1.3453C3.75307 1.39278 3.07568 1.64632 2.52073 2.09872C2.00777 2.51705 1.65448 3.0942 1.47076 3.81418C1.28862 4.52804 1.27812 5.29428 1.26799 6.03549C1.26006 6.61619 1.25176 7.30381 1.25005 8.00144C1.25176 8.69602 1.26006 9.38377 1.26799 9.96446C1.27812 10.7056 1.28862 11.4719 1.47076 12.1857C1.65448 12.9056 2.00777 13.4828 2.52073 13.9011C3.07568 14.3535 3.75307 14.6071 4.53435 14.6545C5.63486 14.7216 6.76808 14.7528 7.99847 14.7498V14.7498ZM7.96869 11.9062C5.8148 11.9062 4.06229 10.1539 4.06229 7.99998C4.06229 5.84604 5.8148 4.09372 7.96869 4.09372C10.1227 4.09372 11.8751 5.84604 11.8751 7.99998C11.8751 10.1539 10.1227 11.9062 7.96869 11.9062V11.9062ZM7.96869 5.34372C6.50403 5.34372 5.31234 6.53537 5.31234 7.99998C5.31234 9.46458 6.50403 10.6562 7.96869 10.6562C9.43347 10.6562 10.625 9.46458 10.625 7.99998C10.625 6.53537 9.43347 5.34372 7.96869 5.34372V5.34372ZM12.3126 2.84371C11.7949 2.84371 11.3751 3.26339 11.3751 3.78122C11.3751 4.29904 11.7949 4.71872 12.3126 4.71872C12.8304 4.71872 13.2501 4.29904 13.2501 3.78122C13.2501 3.26339 12.8304 2.84371 12.3126 2.84371Z" fill="#2E2520"/>
</symbol>

<symbol id="twitter" width="16" height="15" viewBox="0 0 16 15">
<path d="M16 1.72037C15.405 2.01212 14.771 2.20551 14.11 2.29941C14.79 1.84556 15.309 1.13238 15.553 0.272755C14.919 0.695301 14.219 0.993766 13.473 1.16032C12.871 0.443785 12.013 0 11.077 0C9.261 0 7.799 1.64771 7.799 3.66765C7.799 3.95829 7.821 4.23776 7.875 4.5038C5.148 4.35513 2.735 2.8941 1.114 0.668472C0.831 1.21733 0.665 1.84556 0.665 2.52186C0.665 3.79174 1.25 4.91741 2.122 5.56911C1.595 5.55793 1.078 5.3869 0.64 5.1175C0.64 5.12868 0.64 5.14321 0.64 5.15774C0.64 6.93959 1.777 8.41962 3.268 8.76056C3.001 8.84217 2.71 8.88129 2.408 8.88129C2.198 8.88129 1.986 8.86788 1.787 8.81869C2.212 10.2708 3.418 11.3383 4.852 11.373C3.736 12.3489 2.319 12.9368 0.785 12.9368C0.516 12.9368 0.258 12.9234 0 12.8865C1.453 13.934 3.175 14.532 5.032 14.532C11.068 14.532 14.368 8.94277 14.368 4.09803C14.368 3.93594 14.363 3.77944 14.356 3.62406C15.007 3.10761 15.554 2.46262 16 1.72037Z" fill="#2E2520"/>
</symbol>

<symbol id="1" width="24" height="25" viewBox="0 0 24 25" >
<path d="M17.0056 6.69687C16.9166 6.69687 16.8312 6.65629 16.7682 6.58404C16.7052 6.51179 16.6698 6.4138 16.6698 6.31162C16.6438 4.83564 16.1144 3.43019 15.1953 2.39692C14.2763 1.36365 13.0407 0.784913 11.7539 0.784913C10.4671 0.784913 9.23161 1.36365 8.31254 2.39692C7.39347 3.43019 6.8641 4.83564 6.83806 6.31162C6.83806 6.4138 6.80268 6.51179 6.7397 6.58404C6.67673 6.65629 6.59131 6.69687 6.50225 6.69687C6.41319 6.69687 6.32777 6.65629 6.2648 6.58404C6.20182 6.51179 6.16644 6.4138 6.16644 6.31162C6.18919 4.62873 6.78787 3.0236 7.83326 1.84274C8.87864 0.661873 10.2869 0 11.7539 0C13.221 0 14.6292 0.661873 15.6746 1.84274C16.72 3.0236 17.3187 4.62873 17.3414 6.31162C17.3414 6.4138 17.3061 6.51179 17.2431 6.58404C17.1801 6.65629 17.0947 6.69687 17.0056 6.69687Z" fill="#674D40"/>
<path d="M17.9859 15.4156C17.8968 15.4162 17.8112 15.3762 17.7479 15.3043C17.6845 15.2325 17.6486 15.1348 17.6481 15.0326C17.6475 14.9304 17.6824 14.8322 17.745 14.7595C17.8076 14.6868 17.8928 14.6456 17.9819 14.645C19.2608 14.6364 20.4856 14.0523 21.3931 13.0185C22.3007 11.9847 22.8184 10.5836 22.835 9.11645C22.8223 7.63491 22.2979 6.21962 21.3769 5.18103C20.4559 4.14243 19.2135 3.56534 17.9221 3.57633C17.4263 3.57539 16.9332 3.65927 16.459 3.82521C16.3743 3.85344 16.2833 3.8423 16.2057 3.7942C16.1281 3.7461 16.0701 3.66489 16.0442 3.56813C16.0184 3.47138 16.0267 3.36683 16.0675 3.2771C16.1083 3.18737 16.1782 3.11965 16.2622 3.08858C16.8002 2.90025 17.3596 2.80494 17.9221 2.80579C19.3915 2.79502 20.8047 3.45336 21.8516 4.63641C22.8986 5.81946 23.4937 7.43062 23.5066 9.11645C23.4894 10.7861 22.9018 12.3814 21.8702 13.5593C20.8386 14.7373 19.4453 15.4038 17.9899 15.4156H17.9859Z" fill="#674D40"/>
<path d="M5.52067 15.4156H5.51664C4.06123 15.4038 2.66797 14.7373 1.63637 13.5593C0.604765 12.3814 0.0172046 10.7861 0 9.11645C0.012864 7.43062 0.60803 5.81946 1.65494 4.63641C2.70186 3.45336 4.11503 2.79502 5.58447 2.80579C6.14694 2.80494 6.70639 2.90025 7.24437 3.08858C7.28712 3.10283 7.32697 3.12668 7.3616 3.15876C7.39624 3.19083 7.42497 3.23049 7.44613 3.27542C7.46729 3.32035 7.48045 3.36966 7.48485 3.42048C7.48925 3.4713 7.4848 3.52262 7.47175 3.57144C7.45871 3.62027 7.43733 3.66564 7.40887 3.7049C7.38041 3.74417 7.34542 3.77655 7.30595 3.80016C7.26649 3.82377 7.22332 3.83815 7.17896 3.84245C7.13461 3.84675 7.08995 3.84089 7.04759 3.82521C6.57338 3.65927 6.08025 3.57539 5.58447 3.57633C4.2931 3.56534 3.05064 4.14243 2.12964 5.18103C1.20864 6.21962 0.684295 7.63491 0.671614 9.11645C0.688217 10.5836 1.20593 11.9847 2.11344 13.0185C3.02096 14.0523 4.24582 14.6364 5.5247 14.645C5.5688 14.6453 5.61241 14.6556 5.65306 14.6752C5.6937 14.6949 5.73057 14.7235 5.76156 14.7595C5.79256 14.7955 5.81707 14.8381 5.8337 14.885C5.85033 14.9318 5.85876 14.982 5.85849 15.0326C5.85823 15.0832 5.84928 15.1332 5.83216 15.1799C5.81504 15.2265 5.79008 15.2688 5.75871 15.3043C5.72734 15.3399 5.69018 15.368 5.64933 15.3871C5.60849 15.4062 5.56477 15.4159 5.52067 15.4156Z" fill="#674D40"/>
<path d="M17.9858 24.9999H5.52062C5.43156 24.9999 5.34615 24.9593 5.28317 24.887C5.22019 24.8148 5.18481 24.7168 5.18481 24.6146V15.0308C5.18481 14.9286 5.22019 14.8306 5.28317 14.7583C5.34615 14.6861 5.43156 14.6455 5.52062 14.6455C5.60969 14.6455 5.6951 14.6861 5.75808 14.7583C5.82105 14.8306 5.85643 14.9286 5.85643 15.0308V24.2294H17.65V15.0308C17.65 14.9286 17.6854 14.8306 17.7484 14.7583C17.8114 14.6861 17.8968 14.6455 17.9858 14.6455C18.0749 14.6455 18.1603 14.6861 18.2233 14.7583C18.2863 14.8306 18.3216 14.9286 18.3216 15.0308V24.6146C18.3216 24.7168 18.2863 24.8148 18.2233 24.887C18.1603 24.9593 18.0749 24.9999 17.9858 24.9999Z" fill="#674D40"/>
<path d="M20.3231 21.2669H7.8579C7.76884 21.2669 7.68343 21.2263 7.62045 21.154C7.55747 21.0817 7.52209 20.9836 7.52209 20.8814C7.52209 20.7791 7.55747 20.6811 7.62045 20.6088C7.68343 20.5365 7.76884 20.4958 7.8579 20.4958H20.3231C20.4122 20.4958 20.4976 20.5365 20.5606 20.6088C20.6235 20.6811 20.6589 20.7791 20.6589 20.8814C20.6589 20.9836 20.6235 21.0817 20.5606 21.154C20.4976 21.2263 20.4122 21.2669 20.3231 21.2669Z" fill="#674D40"/>
</symbol>

<symbol id="2" width="25" height="20" viewBox="0 0 25 20" >
<path d="M19.2347 8.67117C19.2347 3.43329 14.4221 0 9.61735 0C4.79342 0 0 3.44942 0 8.67117C0 10.6467 0.754152 12.5785 2.12359 14.1108C2.17598 14.1695 2.19605 14.2585 2.17593 14.3431C1.7458 16.1509 0.727052 17.7839 0.309034 18.4022C0.179004 18.5945 0.157617 18.8488 0.253272 19.066C0.346778 19.2784 0.531641 19.4084 0.738185 19.4084C0.742872 19.4084 0.747511 19.4084 0.752198 19.4083C2.79776 19.3497 5.16881 18.6874 6.63443 17.0342C6.68566 16.9764 6.75914 16.9536 6.83111 16.9732C7.7316 17.2183 8.66906 17.3425 9.61735 17.3425C14.4399 17.3423 19.2347 13.8943 19.2347 8.67117ZM7.00011 16.1555C6.6817 16.0688 6.35294 16.1733 6.12096 16.435C4.65528 18.0882 2.26197 18.4641 1.12901 18.5476C1.64654 17.728 2.48799 16.2227 2.88252 14.5643C2.97271 14.1853 2.87784 13.7811 2.63497 13.5092C1.39033 12.1166 0.732423 10.4436 0.732423 8.67117C0.732423 4.35323 4.71817 0.840284 9.61735 0.840284C14.5165 0.840284 18.5023 4.35318 18.5023 8.67117C18.5023 12.9892 14.5165 16.5021 9.61735 16.5021C8.72589 16.5021 7.84537 16.3854 7.00011 16.1555Z" fill="#674D40"/>
<path d="M21.5901 15.6521C23.7253 14.4142 25 12.3043 25 10.0081C25 6.76289 22.443 3.98999 18.92 3.41463C18.7201 3.38202 18.5344 3.54162 18.5059 3.77135C18.4774 4.00108 18.6166 4.21378 18.8168 4.2465C21.9752 4.76231 24.2676 7.18538 24.2676 10.0081C24.2676 11.9806 23.1431 13.8102 21.2597 14.9022C20.8935 15.1146 20.6972 15.584 20.7826 16.0439C20.9611 17.0066 21.3412 17.898 21.6453 18.5022C19.4826 18.0893 18.663 16.8988 18.4038 16.3835C18.2438 16.0654 17.9446 15.8683 17.6217 15.8683C17.6207 15.8683 17.6198 15.8683 17.6188 15.8683L17.592 15.8683C17.1859 15.8683 16.7792 15.836 16.3835 15.7722C16.1837 15.74 15.998 15.9 15.9699 16.1298C15.9418 16.3596 16.0813 16.572 16.2816 16.6043C16.711 16.6735 17.1519 16.7085 17.592 16.7085L17.6218 16.7085H17.6223C17.6836 16.7085 17.7398 16.7448 17.7694 16.8035C18.7612 18.7755 21.0412 19.279 21.9755 19.4039C22.1818 19.4315 22.3784 19.3233 22.4885 19.121C22.5983 18.9192 22.597 18.6693 22.4848 18.469C22.2034 17.9661 21.7013 16.9598 21.499 15.869C21.4828 15.7819 21.5202 15.6926 21.5901 15.6521Z" fill="#674D40"/>
<path d="M3.91887 7.16846C3.21901 7.16846 2.64966 7.82173 2.64966 8.62464C2.64966 9.42755 3.21901 10.0808 3.91887 10.0808C4.61874 10.0808 5.18809 9.42755 5.18809 8.62464C5.18809 7.82173 4.61874 7.16846 3.91887 7.16846ZM3.91887 9.24055C3.62287 9.24055 3.3821 8.96425 3.3821 8.6247C3.3821 8.28515 3.62292 8.00884 3.91887 8.00884C4.21483 8.00884 4.45565 8.28515 4.45565 8.6247C4.45565 8.96425 4.21483 9.24055 3.91887 9.24055Z" fill="#674D40"/>
<path d="M7.53955 7.16846C6.83971 7.16846 6.27039 7.82173 6.27039 8.62464C6.27039 9.42755 6.83971 10.0808 7.53955 10.0808C8.23939 10.0808 8.80872 9.42755 8.80872 8.62464C8.80872 7.82173 8.23939 7.16846 7.53955 7.16846ZM7.53955 9.24055C7.24356 9.24055 7.00279 8.96425 7.00279 8.6247C7.00279 8.28515 7.24361 8.00884 7.53955 8.00884C7.83549 8.00884 8.07631 8.28515 8.07631 8.6247C8.07631 8.96425 7.83554 9.24055 7.53955 9.24055Z" fill="#674D40"/>
<path d="M11.1603 7.16846C10.4605 7.16846 9.89111 7.82173 9.89111 8.62464C9.89111 9.42755 10.4605 10.0808 11.1603 10.0808C11.8602 10.0808 12.4295 9.42755 12.4295 8.62464C12.4295 7.82173 11.8602 7.16846 11.1603 7.16846ZM11.1603 9.24055C10.8643 9.24055 10.6236 8.96425 10.6236 8.6247C10.6236 8.28515 10.8644 8.00884 11.1603 8.00884C11.4563 8.00884 11.6971 8.28515 11.6971 8.6247C11.6971 8.96425 11.4563 9.24055 11.1603 9.24055Z" fill="#674D40"/>
<path d="M14.7811 7.16846C14.0812 7.16846 13.5118 7.82173 13.5118 8.62464C13.5118 9.42755 14.0812 10.0808 14.7811 10.0808C15.4809 10.0808 16.0503 9.42755 16.0503 8.62464C16.0503 7.82173 15.4809 7.16846 14.7811 7.16846ZM14.7811 9.24055C14.4851 9.24055 14.2443 8.96425 14.2443 8.6247C14.2443 8.28515 14.4851 8.00884 14.7811 8.00884C15.077 8.00884 15.3178 8.28515 15.3178 8.6247C15.3178 8.96425 15.077 9.24055 14.7811 9.24055Z" fill="#674D40"/>
</symbol>

<symbol id="3" width="25" height="25" viewBox="0 0 25 25" >
<path d="M12.5 0C5.6075 0 0 5.6075 0 12.5C0 19.3925 5.6075 25 12.5 25C19.3925 25 25 19.3925 25 12.5C25 5.6075 19.3925 0 12.5 0ZM12.5 24.1667C6.06708 24.1667 0.833333 18.9329 0.833333 12.5C0.833333 6.06708 6.06708 0.833333 12.5 0.833333C18.9329 0.833333 24.1667 6.06708 24.1667 12.5C24.1667 18.9329 18.9329 24.1667 12.5 24.1667Z" fill="#674D40"/>
<path d="M12.9167 10.8422V6.61637C12.9167 6.38596 12.73 6.19971 12.5 6.19971C12.27 6.19971 12.0833 6.38596 12.0833 6.61637V10.8422C11.5004 10.9939 11.0442 11.4501 10.8925 12.033H7.91667C7.68667 12.033 7.5 12.2193 7.5 12.4497C7.5 12.6801 7.68667 12.8664 7.91667 12.8664H10.8925C11.0787 13.583 11.7258 14.1164 12.5 14.1164C13.4192 14.1164 14.1667 13.3689 14.1667 12.4497C14.1667 11.6751 13.6333 11.0285 12.9167 10.8422ZM12.5 13.283C12.0404 13.283 11.6667 12.9093 11.6667 12.4497C11.6667 11.9901 12.0404 11.6164 12.5 11.6164C12.9596 11.6164 13.3333 11.9901 13.3333 12.4497C13.3333 12.9093 12.9596 13.283 12.5 13.283Z" fill="#674D40"/>
<path d="M12.5 4.11621C12.73 4.11621 12.9166 3.92996 12.9166 3.69954V3.28288C12.9166 3.05246 12.73 2.86621 12.5 2.86621C12.27 2.86621 12.0833 3.05246 12.0833 3.28288V3.69954C12.0833 3.92996 12.27 4.11621 12.5 4.11621Z" fill="#674D40"/>
<path d="M12.5 20.783C12.27 20.783 12.0833 20.9692 12.0833 21.1996V21.6163C12.0833 21.8467 12.27 22.033 12.5 22.033C12.73 22.033 12.9166 21.8467 12.9166 21.6163V21.1996C12.9166 20.9692 12.73 20.783 12.5 20.783Z" fill="#674D40"/>
<path d="M21.6666 12.033H21.25C21.02 12.033 20.8333 12.2192 20.8333 12.4496C20.8333 12.68 21.02 12.8663 21.25 12.8663H21.6666C21.8966 12.8663 22.0833 12.68 22.0833 12.4496C22.0833 12.2192 21.8966 12.033 21.6666 12.033Z" fill="#674D40"/>
<path d="M3.75002 12.033H3.33335C3.10335 12.033 2.91669 12.2192 2.91669 12.4496C2.91669 12.68 3.10335 12.8663 3.33335 12.8663H3.75002C3.98002 12.8663 4.16669 12.68 4.16669 12.4496C4.16669 12.2192 3.98002 12.033 3.75002 12.033Z" fill="#674D40"/>
<path d="M18.6871 5.67306L18.3925 5.96764C18.2296 6.13056 18.2296 6.39389 18.3925 6.55681C18.4738 6.63806 18.5804 6.67889 18.6871 6.67889C18.7938 6.67889 18.9004 6.63806 18.9817 6.55681L19.2763 6.26222C19.4392 6.09931 19.4392 5.83597 19.2763 5.67306C19.1133 5.51014 18.85 5.51056 18.6871 5.67306Z" fill="#674D40"/>
<path d="M6.01833 18.3422L5.72375 18.6368C5.56083 18.7997 5.56083 19.0631 5.72375 19.226C5.805 19.3072 5.91167 19.3481 6.01833 19.3481C6.125 19.3481 6.23167 19.3072 6.31292 19.226L6.6075 18.9314C6.77042 18.7685 6.77042 18.5052 6.6075 18.3422C6.44458 18.1793 6.18083 18.1797 6.01833 18.3422Z" fill="#674D40"/>
<path d="M18.9817 18.3422C18.8188 18.1792 18.5554 18.1792 18.3925 18.3422C18.2296 18.5051 18.2296 18.7684 18.3925 18.9313L18.6871 19.2259C18.7683 19.3072 18.875 19.348 18.9817 19.348C19.0883 19.348 19.195 19.3072 19.2763 19.2259C19.4392 19.063 19.4392 18.7997 19.2763 18.6367L18.9817 18.3422Z" fill="#674D40"/>
<path d="M6.31292 5.67297C6.15 5.51005 5.88667 5.51005 5.72375 5.67297C5.56083 5.83589 5.56083 6.09922 5.72375 6.26214L6.01833 6.55672C6.09958 6.63797 6.20625 6.6788 6.31292 6.6788C6.41958 6.6788 6.52625 6.63797 6.6075 6.55672C6.77042 6.3938 6.77042 6.13047 6.6075 5.96755L6.31292 5.67297Z" fill="#674D40"/>
</symbol>

<symbol id="4" width="24" height="25" viewBox="0 0 24 25" >
<path d="M8.28706 0C5.71419 0 3.61865 2.40413 3.61865 5.3559C3.61865 8.30767 5.71419 10.7118 8.28706 10.7118C10.8599 10.7118 12.9555 8.30767 12.9555 5.3559C12.9555 2.40413 10.8599 0 8.28706 0ZM8.28706 9.81367C6.13902 9.81367 4.39672 7.80932 4.39672 5.35042C4.39672 2.89153 6.14379 0.887173 8.28706 0.887173C10.4351 0.887173 12.1774 2.89153 12.1774 5.35042C12.1774 7.80932 10.4303 9.81367 8.28706 9.81367Z" fill="#674D40"/>
<path d="M17.8483 2.22314C15.9151 2.22314 14.3446 4.02491 14.3446 6.24289C14.3446 8.46086 15.9151 10.2626 17.8483 10.2626C19.7816 10.2626 21.352 8.46086 21.352 6.24289C21.352 4.02491 19.7816 2.22314 17.8483 2.22314ZM17.8483 9.37544C16.3447 9.37544 15.1227 7.97346 15.1227 6.24836C15.1227 4.52327 16.3447 3.12129 17.8483 3.12129C19.352 3.12129 20.574 4.52327 20.574 6.24836C20.574 7.97346 19.352 9.37544 17.8483 9.37544Z" fill="#674D40"/>
<path d="M24.1158 16.1555C23.7626 13.713 22.4403 11.6539 20.1873 10.575C20.1873 10.575 19.1896 11.4403 17.8483 11.4129C16.3828 11.38 15.5093 10.575 15.5093 10.575C15.5093 10.575 14.4209 11.0405 13.5426 12.0098C12.7311 11.1829 11.3612 10.5093 11.3612 10.5093C11.3612 10.5093 10.1058 11.6046 8.2823 11.5881C6.36816 11.5717 5.21298 10.5093 5.21298 10.5093C5.21298 10.5093 1.07441 12.1413 0.200872 17.6779C0.200872 17.6779 -0.734722 20.6133 1.43242 24.9999H15.1465C15.1465 24.9999 16.1203 23.0558 16.2921 21.8729H23.1134C24.7889 18.9594 24.1158 16.1555 24.1158 16.1555ZM14.6644 24.1073H1.91454C0.248606 20.4764 0.969395 17.8258 0.969395 17.8258C1.37514 15.0492 2.93128 12.7053 5.1557 11.5169C7.06508 12.8039 9.51385 12.8039 11.4232 11.5169C13.6476 12.7053 15.2038 15.0492 15.6095 17.8258C15.6048 17.8258 16.2969 21.0897 14.6644 24.1073ZM22.6599 20.9802H16.4497C16.6883 19.403 16.3733 17.6779 16.3733 17.6779C16.0917 15.7283 15.2897 13.9704 14.1154 12.6122C14.5164 12.196 14.9603 11.851 15.4472 11.5827C16.9127 12.5465 18.7791 12.5465 20.2445 11.5827C21.8914 12.4863 23.0466 14.2332 23.3473 16.3033C23.3473 16.3033 23.9153 18.5158 22.6599 20.9802Z" fill="#674D40"/>
</symbol>

<symbol id="5" width="11" height="15" viewBox="0 0 11 15"  >
<path d="M5.5 0C8.53262 0 11 2.40463 11 5.36011C11 6.52972 10.6209 7.64105 9.90282 8.57343L5.83903 13.9075C5.82887 13.9204 5.81336 13.9253 5.80208 13.9369C5.599 14.1488 5.30595 14.0955 5.16126 13.9075C3.99103 12.3857 1.84603 9.54375 1.02131 8.47173C1.02131 8.47173 1.02103 8.4709 1.02074 8.47035L1.01567 8.46376C0.351154 7.55391 0 6.48079 0 5.36011C0 2.40463 2.46738 0 5.5 0ZM5.5 8.25183C7.13279 8.25183 8.46718 6.95138 8.46718 5.36011C8.46718 3.76885 7.13279 2.4684 5.5 2.4684C3.86721 2.4684 2.53282 3.76885 2.53282 5.36011C2.53282 6.95138 3.86721 8.25183 5.5 8.25183Z" fill="black"/>
</symbol>

<symbol id="6" width="13" height="13" viewBox="0 0 13 13" >
<path d="M11.9559 8.31555C11.1601 8.31555 10.3787 8.19424 9.63815 7.95575C9.2753 7.83513 8.82924 7.94578 8.60778 8.16745L7.14618 9.24277C5.45113 8.36095 4.40702 7.34369 3.51456 5.70412L4.58545 4.31676C4.86368 4.04597 4.96347 3.6504 4.84391 3.27925C4.59815 2.55377 4.4733 1.79256 4.4733 1.0166C4.47333 0.45604 4.00541 0 3.43027 0H1.04306C0.467929 0 0 0.45604 0 1.01656C0 7.44164 5.36336 12.6687 11.9559 12.6687C12.5311 12.6687 12.999 12.2127 12.999 11.6521V9.33208C12.999 8.77159 12.531 8.31555 11.9559 8.31555Z" fill="#2E2520"/>
</symbol>

<symbol id="menu" width="30" height="16" viewBox="0 0 30 16" >
<rect width="30" height="2" rx="1" fill="#2E2520"/>
<rect y="7" width="30" height="2" rx="1" fill="#2E2520"/>
<rect y="14" width="30" height="2" rx="1" fill="#2E2520"/>
</symbol>

<symbol id="close" width="18" height="18" viewBox="0 0 18 18">
<path d="M17.0744 18C17.3115 18 17.5486 17.9098 17.7288 17.7283C18.0904 17.3667 18.0904 16.7803 17.7288 16.4187L1.58088 0.271234C1.21923 -0.0904114 0.632896 -0.0904114 0.271242 0.271234C-0.0904121 0.63288 -0.0904121 1.2192 0.271242 1.58107L16.4189 17.7283C16.6004 17.9087 16.8375 18 17.0744 18Z" fill="#2E2520"/>
<path d="M0.925385 18C1.16249 18 1.39938 17.9098 1.57975 17.7283L17.7288 1.58107C18.0904 1.2192 18.0904 0.63288 17.7288 0.271234C17.3671 -0.0904114 16.7808 -0.0904114 16.4189 0.271234L0.271242 16.4187C-0.0904121 16.7803 -0.0904121 17.3667 0.271242 17.7283C0.452747 17.9087 0.689631 18 0.925385 18Z" fill="#2E2520"/>
</symbol>

</defs>
</svg>